<svg width="22" height="36" viewBox="0 0 22 36" fill="none" xmlns="http://www.w3.org/2000/svg">
<path d="M20.8209 31.8566C20.8209 33.6185 19.3794 35.06 17.6176 35.06H4.20339C2.44152 35.06 1 33.6185 1 31.8566V4.20339C1 2.44152 2.44152 1 4.20339 1H17.6136C19.3754 1 20.8169 2.44152 20.8169 4.20339V31.8566H20.8209Z" fill="white"/>
<path d="M20.8209 31.8566C20.8209 33.6185 19.3794 35.06 17.6176 35.06H4.20339C2.44152 35.06 1 33.6185 1 31.8566V4.20339C1 2.44152 2.44152 1 4.20339 1H17.6136C19.3754 1 20.8169 2.44152 20.8169 4.20339V31.8566H20.8209Z" stroke="#8B8B8B" stroke-miterlimit="10"/>
<path d="M10.9105 33.2021C11.1383 33.2021 11.3229 33.0174 11.3229 32.7896C11.3229 32.5619 11.1383 32.3772 10.9105 32.3772C10.6827 32.3772 10.498 32.5619 10.498 32.7896C10.498 33.0174 10.6827 33.2021 10.9105 33.2021Z" stroke="#8B8B8B" stroke-miterlimit="10"/>
<path d="M1 5.33252H20.8209" stroke="#8B8B8B" stroke-miterlimit="10"/>
<path d="M1 30.3149H20.8209" stroke="#8B8B8B" stroke-miterlimit="10"/>
</svg>
