<svg width="32" height="28" viewBox="0 0 32 28" fill="none" xmlns="http://www.w3.org/2000/svg">
<path d="M31 19.8297C31 21.6753 29.4899 23.1854 27.6443 23.1854H4.3557C2.51007 23.1854 1 21.6753 1 19.8297V4.3557C1 2.51007 2.51007 1 4.3557 1H27.6443C29.4899 1 31 2.51007 31 4.3557V19.8297Z" fill="white"/>
<path d="M31 19.8297C31 21.6753 29.4899 23.1854 27.6443 23.1854H4.3557C2.51007 23.1854 1 21.6753 1 19.8297V4.3557C1 2.51007 2.51007 1 4.3557 1H27.6443C29.4899 1 31 2.51007 31 4.3557V19.8297Z" stroke="#8B8B8B" stroke-miterlimit="10"/>
<path d="M1 18.8103H31" stroke="#8B8B8B" stroke-miterlimit="10"/>
<path d="M11.3901 26.7803H20.6099" stroke="#8B8B8B" stroke-miterlimit="10" stroke-linecap="round"/>
<path d="M16 21.3103C16.1714 21.3103 16.3104 21.1713 16.3104 20.9999C16.3104 20.8284 16.1714 20.6895 16 20.6895C15.8286 20.6895 15.6896 20.8284 15.6896 20.9999C15.6896 21.1713 15.8286 21.3103 16 21.3103Z" stroke="#8B8B8B" stroke-width="2" stroke-miterlimit="10"/>
<path d="M18.7349 23.1853H13.2651V26.7801H18.7349V23.1853Z" fill="white" stroke="#8B8B8B" stroke-miterlimit="10"/>
</svg>
