<svg width="53" height="89" viewBox="0 0 53 89" fill="none" xmlns="http://www.w3.org/2000/svg">
<path d="M51.5 79.06C51.5 83.46 47.9 87.06 43.5 87.06H10C5.6 87.06 2 83.46 2 79.06V10C2 5.6 5.6 2 10 2H43.49C47.89 2 51.49 5.6 51.49 10V79.06H51.5Z" fill="white"/>
<path d="M51.5 79.06C51.5 83.46 47.9 87.06 43.5 87.06H10C5.6 87.06 2 83.46 2 79.06V10C2 5.6 5.6 2 10 2H43.49C47.89 2 51.49 5.6 51.49 10V79.06H51.5Z" stroke="#515151" stroke-width="3" stroke-miterlimit="10"/>
<path d="M26.75 82.42C27.3188 82.42 27.78 81.9588 27.78 81.39C27.78 80.8211 27.3188 80.36 26.75 80.36C26.1811 80.36 25.72 80.8211 25.72 81.39C25.72 81.9588 26.1811 82.42 26.75 82.42Z" stroke="#515151" stroke-width="3" stroke-miterlimit="10"/>
<path d="M2 12.8199H51.5" stroke="#515151" stroke-width="3" stroke-miterlimit="10"/>
<path d="M2 75.21H51.5" stroke="#515151" stroke-width="3" stroke-miterlimit="10"/>
</svg>
