<svg width="76" height="65" viewBox="0 0 76 65" fill="none" xmlns="http://www.w3.org/2000/svg">
<path d="M73.52 46.8899C73.52 51.2899 69.92 54.8899 65.52 54.8899H10C5.6 54.8899 2 51.2899 2 46.8899V9.99988C2 5.59988 5.6 1.99988 10 1.99988H65.52C69.92 1.99988 73.52 5.59988 73.52 9.99988V46.8899Z" fill="white"/>
<path d="M73.52 46.8899C73.52 51.2899 69.92 54.8899 65.52 54.8899H10C5.6 54.8899 2 51.2899 2 46.8899V9.99988C2 5.59988 5.6 1.99988 10 1.99988H65.52C69.92 1.99988 73.52 5.59988 73.52 9.99988V46.8899Z" stroke="#515151" stroke-width="3" stroke-miterlimit="10"/>
<path d="M2 44.4598H73.52" stroke="#515151" stroke-width="3" stroke-miterlimit="10"/>
<path d="M26.77 63.4598H48.75" stroke="#515151" stroke-width="3" stroke-miterlimit="10" stroke-linecap="round"/>
<path d="M37.76 50.4198C38.1687 50.4198 38.5 50.0885 38.5 49.6798C38.5 49.2711 38.1687 48.9398 37.76 48.9398C37.3513 48.9398 37.02 49.2711 37.02 49.6798C37.02 50.0885 37.3513 50.4198 37.76 50.4198Z" stroke="#515151" stroke-width="3" stroke-miterlimit="10"/>
<path d="M44.28 54.8899H31.24V63.4599H44.28V54.8899Z" fill="white" stroke="#515151" stroke-width="3" stroke-miterlimit="10"/>
</svg>
