<svg width="94" height="66" viewBox="0 0 94 66" fill="none" xmlns="http://www.w3.org/2000/svg">
<path d="M87.48 51.3C87.48 55.7 83.88 59.3 79.48 59.3H14.16C9.75997 59.3 6.15997 55.7 6.15997 51.3V10C6.15997 5.6 9.75997 2 14.16 2H79.48C83.88 2 87.48 5.6 87.48 10V51.3Z" fill="white"/>
<path d="M87.48 51.3C87.48 55.7 83.88 59.3 79.48 59.3H14.16C9.75997 59.3 6.15997 55.7 6.15997 51.3V10C6.15997 5.6 9.75997 2 14.16 2H79.48C83.88 2 87.48 5.6 87.48 10V51.3Z" stroke="#515151" stroke-width="3" stroke-miterlimit="10"/>
<path d="M2 56.0599C2 60.6299 5.74 64.3799 10.32 64.3799H83.32C87.89 64.3799 91.64 60.6399 91.64 56.0599V51.4399H2V56.0599Z" fill="white" stroke="#515151" stroke-width="3" stroke-miterlimit="10"/>
<path d="M41.04 58.14H52.6" stroke="#515151" stroke-width="3" stroke-miterlimit="10" stroke-linecap="round"/>
</svg>
