<svg width="94" height="65" viewBox="0 0 94 65" fill="none" xmlns="http://www.w3.org/2000/svg">
<path d="M72.61 46.22C72.61 50.62 69.01 54.22 64.61 54.22H10.01C5.61001 54.22 2.01001 50.62 2.01001 46.22V10C2.01001 5.6 5.61001 2 10.01 2H64.61C69.01 2 72.61 5.6 72.61 10V46.22Z" fill="white"/>
<path d="M72.61 46.22C72.61 50.62 69.01 54.22 64.61 54.22H10.01C5.61001 54.22 2.01001 50.62 2.01001 46.22V10C2.01001 5.6 5.61001 2 10.01 2H64.61C69.01 2 72.61 5.6 72.61 10V46.22Z" stroke="#515151" stroke-width="3" stroke-miterlimit="10"/>
<path d="M2 43.92H72.61" stroke="#515151" stroke-width="3" stroke-miterlimit="10"/>
<path d="M26.46 62.6801H48.15" stroke="#515151" stroke-width="3" stroke-miterlimit="10" stroke-linecap="round"/>
<path d="M37.3 49.81C37.7087 49.81 38.04 49.4787 38.04 49.07C38.04 48.6613 37.7087 48.33 37.3 48.33C36.8913 48.33 36.56 48.6613 36.56 49.07C36.56 49.4787 36.8913 49.81 37.3 49.81Z" stroke="#515151" stroke-width="3" stroke-miterlimit="10"/>
<path d="M43.74 54.22H30.87V62.68H43.74V54.22Z" fill="white" stroke="#515151" stroke-width="3" stroke-miterlimit="10"/>
<path d="M92.36 54.68C92.36 59.08 88.76 62.68 84.36 62.68H65.06C60.66 62.68 57.06 59.08 57.06 54.68V10C57.06 5.6 60.66 2 65.06 2H84.36C88.76 2 92.36 5.6 92.36 10V54.68Z" fill="white"/>
<path d="M92.36 54.68C92.36 59.08 88.76 62.68 84.36 62.68H65.06C60.66 62.68 57.06 59.08 57.06 54.68V10C57.06 5.6 60.66 2 65.06 2H84.36C88.76 2 92.36 5.6 92.36 10V54.68Z" stroke="#515151" stroke-width="3" stroke-miterlimit="10"/>
<path d="M74.71 56.4299C75.1187 56.4299 75.45 56.0986 75.45 55.6899C75.45 55.2813 75.1187 54.95 74.71 54.95C74.3013 54.95 73.97 55.2813 73.97 55.6899C73.97 56.0986 74.3013 56.4299 74.71 56.4299Z" stroke="#515151" stroke-width="3" stroke-miterlimit="10"/>
<path d="M74.71 44.84C75.42 44.84 76 45.42 76 46.13C76 46.84 75.42 47.42 74.71 47.42C74 47.42 73.42 46.84 73.42 46.13C73.42 45.42 74 44.84 74.71 44.84ZM74.71 41.84C72.35 41.84 70.42 43.76 70.42 46.13C70.42 48.5 72.34 50.42 74.71 50.42C77.08 50.42 79 48.5 79 46.13C79 43.76 77.07 41.84 74.71 41.84Z" fill="#515151"/>
<path d="M69.38 9.71997H80.04" stroke="#515151" stroke-width="3" stroke-miterlimit="10" stroke-linecap="round"/>
<path d="M66.8 32.89H82.61" stroke="#515151" stroke-width="3" stroke-miterlimit="10" stroke-linecap="round"/>
<path d="M66.8 39.14H82.61" stroke="#515151" stroke-width="3" stroke-miterlimit="10" stroke-linecap="round"/>
</svg>
