<svg width="75" height="89" viewBox="0 0 75 89" fill="none" xmlns="http://www.w3.org/2000/svg">
<path d="M72.88 79.06C72.88 83.46 69.28 87.06 64.88 87.06H10C5.6 87.06 2 83.46 2 79.06V10C2 5.6 5.6 2 10 2H64.89C69.29 2 72.89 5.6 72.89 10V79.06H72.88Z" fill="white"/>
<path d="M72.88 79.06C72.88 83.46 69.28 87.06 64.88 87.06H10C5.6 87.06 2 83.46 2 79.06V10C2 5.6 5.6 2 10 2H64.89C69.29 2 72.89 5.6 72.89 10V79.06H72.88Z" stroke="#515151" stroke-width="3" stroke-miterlimit="10"/>
<path d="M37.44 82.42C38.0089 82.42 38.47 81.9588 38.47 81.39C38.47 80.8211 38.0089 80.36 37.44 80.36C36.8712 80.36 36.41 80.8211 36.41 81.39C36.41 81.9588 36.8712 82.42 37.44 82.42Z" stroke="#515151" stroke-width="3" stroke-miterlimit="10"/>
<path d="M64.09 10.76H10.79V75.2H64.09V10.76Z" fill="white" stroke="#515151" stroke-width="3" stroke-miterlimit="10"/>
</svg>
