<svg width="46" height="46" viewBox="0 0 46 46" fill="none" xmlns="http://www.w3.org/2000/svg">
<path d="M2.35379 0.00631057C2.47369 0.088346 2.59358 0.170382 2.71979 0.246107C4.87165 1.48926 7.01719 2.73241 9.16904 3.96925C9.25739 4.01974 9.30156 4.07022 9.28263 4.19012C9.15642 4.97261 9.04914 5.7551 8.93556 6.5376C8.92294 6.63225 8.94818 6.69536 9.01759 6.76477C12.4883 10.2292 15.9527 13.6936 19.4172 17.158C21.2346 18.9754 23.052 20.7928 24.8694 22.6166C24.882 22.6292 24.8883 22.6481 24.9072 22.6733C24.9577 22.6292 24.9956 22.5976 25.0271 22.5598C25.3679 22.219 25.7023 21.8782 26.0494 21.5438C26.7877 20.8181 27.8226 20.8181 28.5547 21.5501C28.744 21.7394 28.927 21.9287 29.1163 22.1117C29.5075 22.4903 29.6148 22.9636 29.5643 23.4811C29.5265 23.8408 29.4003 24.1689 29.1857 24.4718C29.4823 24.7432 29.7726 25.0019 30.0628 25.2669C30.4983 25.6582 30.9337 26.0494 31.3628 26.447C31.4448 26.5164 31.5079 26.5353 31.6152 26.5101C32.3598 26.3145 33.0729 26.4344 33.7544 26.7751C34.2656 27.0275 34.6505 27.4251 35.0418 27.8226C36.0956 28.8891 37.1558 29.9493 38.2159 31.0094C39.9702 32.7763 41.7245 34.5369 43.4725 36.3039C43.8133 36.6446 44.154 36.9791 44.4569 37.3577C45.069 38.1213 45.3909 39.0047 45.4413 39.9828C45.5171 41.4847 44.9618 42.7405 43.9332 43.8133C43.4094 44.3623 42.8225 44.8229 42.1094 45.0943C40.494 45.719 38.9416 45.5739 37.4776 44.6399C36.9601 44.3118 36.55 43.8511 36.1209 43.422C34.4801 41.8002 32.8457 40.1721 31.2113 38.5504C30.29 37.6354 29.3687 36.714 28.4411 35.799C28.0751 35.433 27.7091 35.067 27.3367 34.701C26.5921 33.969 26.3081 33.0603 26.3397 32.0317C26.346 31.8676 26.3713 31.7099 26.3776 31.5458C26.3776 31.5016 26.3649 31.4385 26.3334 31.407C25.6708 30.7444 25.0082 30.0818 24.3456 29.4192C24.3393 29.4129 24.3267 29.4129 24.3077 29.4003C24.15 29.5896 23.967 29.741 23.7272 29.8231C23.1214 30.025 22.585 29.8798 22.118 29.4823C21.8151 29.2173 21.5312 28.927 21.2598 28.6304C20.5846 27.9047 20.6414 26.8319 21.3734 26.1567C21.8088 25.7528 22.2316 25.3363 22.686 24.9009C22.4272 24.6485 22.1685 24.4024 21.9224 24.1563C16.8678 19.108 11.8194 14.0533 6.76477 8.99866C6.69536 8.92925 6.63225 8.904 6.5376 8.91663C5.74248 9.03652 4.94106 9.15011 4.14595 9.27001C4.0576 9.28263 4.02605 9.25108 3.98819 9.18797C3.36977 8.1152 2.74503 7.03612 2.12661 5.96335C1.43878 4.77068 0.75094 3.58432 0.0567939 2.39165C0.0441731 2.36641 0.0189313 2.35379 0 2.33486C0 2.31592 0 2.29699 0 2.27806C0.0252417 2.25913 0.0441727 2.24651 0.0694144 2.22758C0.788803 1.50819 1.50819 0.788802 2.22758 0.0694144C2.24651 0.0504832 2.25913 0.0252417 2.27806 0C2.31592 0.00631042 2.33486 0.00631057 2.35379 0.00631057ZM30.656 29.8294C30.4856 29.8357 30.2585 29.8672 30.0755 30.0376C29.7032 30.391 29.7095 30.9526 30.0881 31.3312C33.5083 34.7515 36.9349 38.178 40.3551 41.5983C40.3741 41.6172 40.393 41.6425 40.4182 41.6614C40.6833 41.8823 40.9799 41.9517 41.3017 41.8381C41.9454 41.6046 42.1031 40.8347 41.6046 40.3425C38.1907 36.9286 34.7704 33.5146 31.3628 30.0944C31.1798 29.9114 30.9715 29.8231 30.656 29.8294Z" fill="#F6F4F8"/>
<path d="M0.0189362 36.1713C0.0504883 35.9378 0.0757302 35.7107 0.107282 35.4772C0.283974 34.1457 0.744635 32.9152 1.49557 31.7982C2.49893 30.309 3.83674 29.2362 5.509 28.5799C6.80895 28.0688 8.15938 27.8921 9.54767 28.012C9.95154 28.0498 10.3554 28.1255 10.7593 28.176C10.8034 28.1823 10.8539 28.1571 10.8981 28.1319C10.9297 28.1129 10.9549 28.0814 10.9801 28.0498C13.0058 26.0242 15.0314 23.9985 17.0571 21.9729C17.0949 21.935 17.1328 21.9035 17.1644 21.8719C18.1488 22.8563 19.1269 23.8345 20.0861 24.7936C19.8968 25.1155 19.6759 25.431 19.5308 25.7718C18.9439 27.1159 19.2342 28.6114 20.2501 29.6779C20.4647 29.9051 20.6414 30.1701 20.8686 30.4604C20.8118 30.492 20.7613 30.5172 20.7171 30.5614C19.556 31.7162 18.4012 32.8773 17.2338 34.0321C17.1454 34.1204 17.1328 34.1962 17.1644 34.3098C17.7765 36.531 17.5935 38.6892 16.5459 40.7401C15.4227 42.9424 13.6494 44.4064 11.2767 45.0943C9.04284 45.7442 6.85312 45.5612 4.77068 44.5137C2.65669 43.4536 1.24316 41.7687 0.473287 39.5348C0.233491 38.8343 0.0946613 38.1086 0.0504884 37.364C0.0504884 37.3324 0.0315571 37.3009 0.0252467 37.2693C0.0189363 36.9033 0.0189362 36.5373 0.0189362 36.1713ZM9.95154 32.1831C9.90106 32.1958 9.87582 32.2021 9.85057 32.2084C8.51276 32.5618 7.17495 32.9341 5.83714 33.2685C5.52162 33.3443 5.39542 33.4831 5.31969 33.7923C4.98524 35.1364 4.61923 36.4742 4.25954 37.812C4.24061 37.8941 4.25323 37.9446 4.31002 38.0014C5.37017 39.0615 6.43033 40.1217 7.49679 41.1755C7.53465 41.2134 7.61668 41.2386 7.66717 41.2197C8.36131 41.043 9.05546 40.8537 9.74961 40.6707C10.4879 40.475 11.2199 40.2794 11.9583 40.0901C12.0529 40.0649 12.1097 40.0207 12.1349 39.9134C12.5136 38.4746 12.8922 37.0422 13.2708 35.6034C13.2834 35.5529 13.2645 35.4772 13.233 35.4456C12.1728 34.3792 11.1063 33.319 10.0462 32.2526C10.0083 32.221 9.97047 32.2021 9.95154 32.1831Z" fill="#F6F4F8"/>
<path d="M30.7759 20.9885C30.4983 20.7108 30.2395 20.4458 29.9745 20.187C29.3876 19.6191 28.6809 19.3036 27.8731 19.2152C26.8067 19.0953 25.8664 19.4109 25.0334 20.105C24.1626 19.1269 23.2918 18.1488 22.4209 17.1644C23.6578 15.9275 24.8946 14.6907 26.1251 13.4601C25.898 13.05 25.6771 12.665 25.4689 12.2738C24.9577 11.2767 24.5854 10.2292 24.4592 9.11225C24.2573 7.35795 24.7116 5.79928 25.8727 4.44885C26.4154 3.81781 27.0717 3.33191 27.7532 2.87125C29.3308 1.81109 31.0347 1.00336 32.8647 0.479596C33.8996 0.183006 34.9597 3.73647e-06 36.0451 0.0378663C36.6004 0.0567975 37.2441 0.132522 37.7553 0.334456C37.7111 0.378629 37.6732 0.416491 37.6354 0.460664C35.9946 2.10137 34.3602 3.73577 32.7195 5.37648C31.9749 6.12111 31.9686 7.16233 32.7132 7.90065C34.3792 9.57291 36.0514 11.2389 37.7174 12.9048C38.3484 13.5359 39.1625 13.6431 39.8945 13.2014C40.0081 13.132 40.1154 13.0436 40.21 12.949C40.9988 12.1349 41.7876 11.3209 42.5764 10.5069C43.1128 9.95154 43.6555 9.39622 44.1919 8.8409C44.5011 8.52538 44.804 8.20355 45.1384 7.86279C45.1952 8.05841 45.252 8.22248 45.2962 8.39918C45.4855 9.21953 45.4855 10.0462 45.3656 10.8729C45.0817 12.9048 44.3118 14.7601 43.2579 16.5081C42.7279 17.3978 42.1094 18.2245 41.3711 18.9565C40.6959 19.6317 39.9387 20.187 39.0363 20.5278C38.1781 20.8496 37.2946 20.9506 36.3922 20.8686C34.966 20.7487 33.6661 20.2312 32.4356 19.5244C32.3283 19.4613 32.2652 19.474 32.1832 19.556C31.7225 20.0356 31.2555 20.5026 30.7759 20.9885Z" fill="#F6F4F8"/>
</svg>
