<svg width="113" height="78" viewBox="0 0 113 78" fill="none" xmlns="http://www.w3.org/2000/svg">
<path d="M111.032 57.9237C111.032 63.4051 105.544 67.89 98.8359 67.89H14.196C7.48818 67.89 2 63.4051 2 57.9237V11.9663C2 6.48486 7.48818 2 14.196 2H98.8359C105.544 2 111.032 6.48486 111.032 11.9663V57.9237Z" fill="white"/>
<path d="M111.032 57.9237C111.032 63.4051 105.544 67.89 98.8359 67.89H14.196C7.48818 67.89 2 63.4051 2 57.9237V11.9663C2 6.48486 7.48818 2 14.196 2H98.8359C105.544 2 111.032 6.48486 111.032 11.9663V57.9237Z" stroke="#515151" stroke-width="3" stroke-miterlimit="10"/>
<path d="M3 58H111" stroke="#515151" stroke-width="3" stroke-miterlimit="10"/>
<path d="M46 76.46H67.98" stroke="#515151" stroke-width="3" stroke-miterlimit="10" stroke-linecap="round"/>
<path d="M56.74 63.4199C57.1487 63.4199 57.48 63.0886 57.48 62.6799C57.48 62.2712 57.1487 61.9399 56.74 61.9399C56.3313 61.9399 56 62.2712 56 62.6799C56 63.0886 56.3313 63.4199 56.74 63.4199Z" stroke="#515151" stroke-width="3" stroke-miterlimit="10"/>
<path d="M63.04 67.8899H50V76.4599H63.04V67.8899Z" fill="white" stroke="#515151" stroke-width="3" stroke-miterlimit="10"/>
</svg>
