<svg width="72" height="60" viewBox="0 0 72 60" fill="none" xmlns="http://www.w3.org/2000/svg">
<path d="M16.21 18.8C16.21 18.8 13.32 18.8 11.69 18.8C6.36 18.8 2 23.45 2 29.14V31.72C2 37.41 6.36 42.06 11.69 42.06C13.32 42.06 16.21 42.06 16.21 42.06L31.72 52.4V8.45996L16.21 18.8Z" fill="white" stroke="#515151" stroke-width="3" stroke-miterlimit="10"/>
<path d="M40.23 19.13C45.53 20.21 49.52 24.9 49.52 30.53C49.52 35.99 45.75 40.58 40.68 41.83" stroke="#515151" stroke-width="3" stroke-miterlimit="10" stroke-linecap="round"/>
<path d="M46.31 10.58C54.08 13.87 59.53 21.56 59.53 30.53C59.53 39.35 54.26 46.93 46.7 50.31" stroke="#515151" stroke-width="3" stroke-miterlimit="10" stroke-linecap="round"/>
<path d="M51.84 2.81995C61.96 7.92995 68.91 18.4199 68.91 30.5299C68.91 42.4999 62.13 52.8799 52.21 58.0499" stroke="#515151" stroke-width="3" stroke-miterlimit="10" stroke-linecap="round"/>
<path d="M14.91 2L70.49 57.58" stroke="#515151" stroke-width="3" stroke-miterlimit="10" stroke-linecap="round"/>
</svg>
