<svg width="74" height="69" fill="none" xmlns="http://www.w3.org/2000/svg"><path d="M72 59.29c0 4.4-3.6 8-8 8H10c-4.4 0-8-3.6-8-8V24.57c0-4.4 3.6-8 8-8h54c4.4 0 8 3.6 8 8v34.72z" fill="#fff"/><path d="M72 59.29c0 4.4-3.6 8-8 8H10c-4.4 0-8-3.6-8-8V24.57c0-4.4 3.6-8 8-8h54c4.4 0 8 3.6 8 8v34.72z" stroke="#515151" stroke-width="3" stroke-miterlimit="10"/><path d="M37 59.93c9.941 0 18-8.059 18-18s-8.059-18-18-18-18 8.059-18 18 8.059 18 18 18zM59.75 31a3.5 3.5 0 100-7 3.5 3.5 0 000 7z" fill="#fff" stroke="#515151" stroke-width="3" stroke-miterlimit="10"/><path d="M22.75 11.08l1-4.54c.55-2.5 4.6-4.54 9-4.54h10.5c4.4 0 8.45 2.05 9 4.56l1 4.56" fill="#fff"/><path d="M22.75 11.08l1-4.54c.55-2.5 4.6-4.54 9-4.54h10.5c4.4 0 8.45 2.05 9 4.56l1 4.56M8.75 10h6M25 29.5l24 24m0-24l-24 24" stroke="#515151" stroke-width="3" stroke-miterlimit="10" stroke-linecap="round"/></svg>