<svg height="32" width="32" xmlns="http://www.w3.org/2000/svg"><path d="M8.914 24.5l4.257-4.257-1.414-1.414L7.5 23.086l-.793-.793a1 1 0 00-1.414 0l-4 4a1 1 0 000 1.414l3 3a1 1 0 001.414 0l4-4a1 1 0 000-1.414zM5 28.586L3.414 27 6 24.414 7.586 26z"/><path d="M24 30a6.007 6.007 0 01-6-6 5.84 5.84 0 01.21-1.547L9.548 13.79A5.848 5.848 0 018 14a5.976 5.976 0 01-5.577-8.184l.558-1.421 3.312 3.312a1.023 1.023 0 001.413 0 .999.999 0 000-1.414L4.395 2.979l1.423-.557A5.977 5.977 0 0114 8a5.84 5.84 0 01-.21 1.547l8.663 8.663A5.855 5.855 0 0124 18a5.976 5.976 0 015.577 8.184l-.557 1.421-3.313-3.312a1.023 1.023 0 00-1.413 0 .999.999 0 00-.001 1.414l3.313 3.313-1.422.558A5.96 5.96 0 0124 30zM10.062 11.476l10.461 10.461-.239.61a3.975 3.975 0 003.466 5.445l-.871-.87a3 3 0 010-4.243 3.072 3.072 0 014.243 0l.87.871a3.976 3.976 0 00-5.446-3.466l-.609.239-10.46-10.46.24-.61A3.975 3.975 0 008.25 4.008l.87.87a3 3 0 010 4.243 3.072 3.072 0 01-4.243 0l-.87-.871a3.975 3.975 0 005.445 3.466z"/><path d="M29.123 2.85a3.072 3.072 0 00-4.243 0l-7.48 7.48 1.414 1.414 7.48-7.48a1.024 1.024 0 011.414 0 1.002 1.002 0 010 1.414l-7.48 7.48 1.414 1.415 7.48-7.48a3.003 3.003 0 000-4.243z"/><path data-name="&lt;Transparent Rectangle&gt;" fill="none" d="M0 0h32v32H0z"/></svg>