<svg width="32" height="28" fill="none" xmlns="http://www.w3.org/2000/svg"><path d="M31 19.83a3.366 3.366 0 01-3.356 3.355H4.356A3.366 3.366 0 011 19.83V4.356A3.366 3.366 0 014.356 1h23.288A3.366 3.366 0 0131 4.356V19.83z" fill="#fff"/><path d="M31 19.83a3.366 3.366 0 01-3.356 3.355H4.356A3.366 3.366 0 011 19.83V4.356A3.366 3.366 0 014.356 1h23.288A3.366 3.366 0 0131 4.356V19.83zM1 18.81h30" stroke="#8B8B8B" stroke-miterlimit="10"/><path d="M11.39 26.78h9.22" stroke="#8B8B8B" stroke-miterlimit="10" stroke-linecap="round"/><path d="M16 21.31a.31.31 0 100-.62.31.31 0 000 .62z" stroke="#8B8B8B" stroke-width="2" stroke-miterlimit="10"/><path d="M18.735 23.185h-5.47v3.595h5.47v-3.595z" fill="#fff" stroke="#8B8B8B" stroke-miterlimit="10"/></svg>