<svg width="22" height="36" fill="none" xmlns="http://www.w3.org/2000/svg"><path d="M20.82 31.857a3.213 3.213 0 01-3.202 3.203H4.203A3.213 3.213 0 011 31.857V4.203A3.213 3.213 0 014.203 1h13.41a3.213 3.213 0 013.204 3.203v27.654h.004z" fill="#fff"/><path d="M20.82 31.857a3.213 3.213 0 01-3.202 3.203H4.203A3.213 3.213 0 011 31.857V4.203A3.213 3.213 0 014.203 1h13.41a3.213 3.213 0 013.204 3.203v27.654h.004z" stroke="#8B8B8B" stroke-miterlimit="10"/><path d="M10.91 33.202a.412.412 0 100-.825.412.412 0 000 .825zM1 5.333h19.82M1 30.315h19.82" stroke="#8B8B8B" stroke-miterlimit="10"/></svg>