<svg width="53" height="89" fill="none" xmlns="http://www.w3.org/2000/svg"><path d="M51.5 79.06c0 4.4-3.6 8-8 8H10c-4.4 0-8-3.6-8-8V10c0-4.4 3.6-8 8-8h33.49c4.4 0 8 3.6 8 8v69.06h.01z" fill="#fff"/><path d="M51.5 79.06c0 4.4-3.6 8-8 8H10c-4.4 0-8-3.6-8-8V10c0-4.4 3.6-8 8-8h33.49c4.4 0 8 3.6 8 8v69.06h.01z" stroke="#515151" stroke-width="3" stroke-miterlimit="10"/><path d="M26.75 82.42a1.03 1.03 0 100-2.06 1.03 1.03 0 000 2.06zM2 12.82h49.5M2 75.21h49.5" stroke="#515151" stroke-width="3" stroke-miterlimit="10"/></svg>