<svg width="76" height="65" fill="none" xmlns="http://www.w3.org/2000/svg"><path d="M73.52 46.89c0 4.4-3.6 8-8 8H10c-4.4 0-8-3.6-8-8V10c0-4.4 3.6-8 8-8h55.52c4.4 0 8 3.6 8 8v36.89z" fill="#fff"/><path d="M73.52 46.89c0 4.4-3.6 8-8 8H10c-4.4 0-8-3.6-8-8V10c0-4.4 3.6-8 8-8h55.52c4.4 0 8 3.6 8 8v36.89zM2 44.46h71.52" stroke="#515151" stroke-width="3" stroke-miterlimit="10"/><path d="M26.77 63.46h21.98" stroke="#515151" stroke-width="3" stroke-miterlimit="10" stroke-linecap="round"/><path d="M37.76 50.42a.74.74 0 100-1.48.74.74 0 000 1.48z" stroke="#515151" stroke-width="3" stroke-miterlimit="10"/><path d="M44.28 54.89H31.24v8.57h13.04v-8.57z" fill="#fff" stroke="#515151" stroke-width="3" stroke-miterlimit="10"/></svg>