<svg width="94" height="66" fill="none" xmlns="http://www.w3.org/2000/svg"><path d="M87.48 51.3c0 4.4-3.6 8-8 8H14.16c-4.4 0-8-3.6-8-8V10c0-4.4 3.6-8 8-8h65.32c4.4 0 8 3.6 8 8v41.3z" fill="#fff"/><path d="M87.48 51.3c0 4.4-3.6 8-8 8H14.16c-4.4 0-8-3.6-8-8V10c0-4.4 3.6-8 8-8h65.32c4.4 0 8 3.6 8 8v41.3z" stroke="#515151" stroke-width="3" stroke-miterlimit="10"/><path d="M2 56.06c0 4.57 3.74 8.32 8.32 8.32h73c4.57 0 8.32-3.74 8.32-8.32v-4.62H2v4.62z" fill="#fff" stroke="#515151" stroke-width="3" stroke-miterlimit="10"/><path d="M41.04 58.14H52.6" stroke="#515151" stroke-width="3" stroke-miterlimit="10" stroke-linecap="round"/></svg>