<svg width="94" height="65" fill="none" xmlns="http://www.w3.org/2000/svg"><path d="M72.61 46.22c0 4.4-3.6 8-8 8h-54.6c-4.4 0-8-3.6-8-8V10c0-4.4 3.6-8 8-8h54.6c4.4 0 8 3.6 8 8v36.22z" fill="#fff"/><path d="M72.61 46.22c0 4.4-3.6 8-8 8h-54.6c-4.4 0-8-3.6-8-8V10c0-4.4 3.6-8 8-8h54.6c4.4 0 8 3.6 8 8v36.22zM2 43.92h70.61" stroke="#515151" stroke-width="3" stroke-miterlimit="10"/><path d="M26.46 62.68h21.69" stroke="#515151" stroke-width="3" stroke-miterlimit="10" stroke-linecap="round"/><path d="M37.3 49.81a.74.74 0 100-1.48.74.74 0 000 1.48z" stroke="#515151" stroke-width="3" stroke-miterlimit="10"/><path d="M43.74 54.22H30.87v8.46h12.87v-8.46z" fill="#fff" stroke="#515151" stroke-width="3" stroke-miterlimit="10"/><path d="M92.36 54.68c0 4.4-3.6 8-8 8h-19.3c-4.4 0-8-3.6-8-8V10c0-4.4 3.6-8 8-8h19.3c4.4 0 8 3.6 8 8v44.68z" fill="#fff"/><path d="M92.36 54.68c0 4.4-3.6 8-8 8h-19.3c-4.4 0-8-3.6-8-8V10c0-4.4 3.6-8 8-8h19.3c4.4 0 8 3.6 8 8v44.68z" stroke="#515151" stroke-width="3" stroke-miterlimit="10"/><path d="M74.71 56.43a.74.74 0 100-1.48.74.74 0 000 1.48z" stroke="#515151" stroke-width="3" stroke-miterlimit="10"/><path d="M74.71 44.84c.71 0 1.29.58 1.29 1.29 0 .71-.58 1.29-1.29 1.29-.71 0-1.29-.58-1.29-1.29 0-.71.58-1.29 1.29-1.29zm0-3a4.29 4.29 0 100 8.58 4.29 4.29 0 100-8.58z" fill="#515151"/><path d="M69.38 9.72h10.66M66.8 32.89h15.81M66.8 39.14h15.81" stroke="#515151" stroke-width="3" stroke-miterlimit="10" stroke-linecap="round"/></svg>