<svg width="40" height="65" fill="none" xmlns="http://www.w3.org/2000/svg"><path d="M37.74 55.44c0 4.4-3.6 8-8 8H10c-4.4 0-8-3.6-8-8V10c0-4.4 3.6-8 8-8h19.75c4.4 0 8 3.6 8 8v45.44h-.01z" fill="#fff"/><path d="M37.74 55.44c0 4.4-3.6 8-8 8H10c-4.4 0-8-3.6-8-8V10c0-4.4 3.6-8 8-8h19.75c4.4 0 8 3.6 8 8v45.44h-.01z" stroke="#515151" stroke-width="3" stroke-miterlimit="10"/><path d="M19.87 60.08a.74.74 0 100-1.48.74.74 0 000 1.48zM2 9.82h35.74M2 54.88h35.74" stroke="#515151" stroke-width="3" stroke-miterlimit="10"/><path d="M8.62 21.22l22.5 22.5m0-22.5l-22.5 22.5" stroke="#515151" stroke-width="3" stroke-miterlimit="10" stroke-linecap="round"/></svg>