<svg width="75" height="89" fill="none" xmlns="http://www.w3.org/2000/svg"><path d="M72.88 79.06c0 4.4-3.6 8-8 8H10c-4.4 0-8-3.6-8-8V10c0-4.4 3.6-8 8-8h54.89c4.4 0 8 3.6 8 8v69.06h-.01z" fill="#fff"/><path d="M72.88 79.06c0 4.4-3.6 8-8 8H10c-4.4 0-8-3.6-8-8V10c0-4.4 3.6-8 8-8h54.89c4.4 0 8 3.6 8 8v69.06h-.01z" stroke="#515151" stroke-width="3" stroke-miterlimit="10"/><path d="M37.44 82.42a1.03 1.03 0 100-2.06 1.03 1.03 0 000 2.06z" stroke="#515151" stroke-width="3" stroke-miterlimit="10"/><path d="M64.09 10.76h-53.3V75.2h53.3V10.76z" fill="#fff" stroke="#515151" stroke-width="3" stroke-miterlimit="10"/></svg>