<svg width="46" height="46" fill="none" xmlns="http://www.w3.org/2000/svg"><path d="M2.354.006c.12.082.24.164.366.24C4.872 1.49 7.017 2.732 9.169 3.97c.088.05.133.101.114.221-.127.783-.234 1.565-.347 2.348-.013.094.012.157.082.227 3.47 3.464 6.935 6.929 10.4 10.393 1.817 1.817 3.634 3.635 5.451 5.459.013.012.02.031.038.056.05-.044.089-.075.12-.113.34-.341.675-.682 1.022-1.016.739-.726 1.774-.726 2.506.006.189.19.372.379.561.562.392.378.499.852.448 1.37a2.064 2.064 0 01-.378.99c.296.271.587.53.877.795.435.391.87.782 1.3 1.18.082.07.145.088.252.063.745-.196 1.458-.076 2.14.265.51.253.895.65 1.287 1.048 1.054 1.066 2.114 2.126 3.174 3.186 1.754 1.767 3.508 3.528 5.256 5.295.341.34.682.675.985 1.054a4.47 4.47 0 01.984 2.625c.076 1.502-.48 2.758-1.508 3.83-.524.55-1.11 1.01-1.824 1.281-1.615.625-3.167.48-4.631-.454-.518-.328-.928-.789-1.357-1.218-1.64-1.622-3.275-3.25-4.91-4.872-.921-.915-1.842-1.836-2.77-2.751-.366-.366-.732-.732-1.104-1.098-.745-.732-1.029-1.64-.997-2.67.006-.163.031-.321.038-.485 0-.044-.013-.107-.045-.139l-1.987-1.988c-.007-.006-.02-.006-.038-.019-.158.19-.341.341-.58.423-.607.202-1.143.057-1.61-.34a10.932 10.932 0 01-.858-.853c-.675-.725-.619-1.798.113-2.473.436-.404.859-.82 1.313-1.256-.259-.253-.517-.499-.764-.745C16.868 19.108 11.82 14.053 6.765 9c-.07-.07-.133-.095-.227-.082-.796.12-1.597.233-2.392.353-.088.013-.12-.019-.158-.082-.618-1.073-1.243-2.152-1.861-3.225a1176.88 1176.88 0 00-2.07-3.572C.044 2.366.019 2.354 0 2.335v-.057l.07-.05L2.227.069c.019-.019.031-.044.05-.069a.394.394 0 00.076.006zM30.656 29.83c-.17.007-.397.038-.58.209-.373.353-.367.915.012 1.293l10.267 10.267c.02.02.038.044.063.063.265.221.562.29.884.177.643-.233.801-1.003.303-1.495-3.414-3.414-6.835-6.828-10.242-10.249-.183-.183-.392-.27-.707-.265z" fill="#F6F4F8"/><path d="M.019 36.171c.031-.233.057-.46.088-.694a8.523 8.523 0 011.389-3.679 8.458 8.458 0 014.013-3.218 8.821 8.821 0 014.039-.568c.404.038.807.113 1.211.164.044.006.095-.019.14-.044a.336.336 0 00.081-.082l6.077-6.077c.038-.038.076-.07.107-.101l2.922 2.922c-.19.322-.41.637-.555.978-.587 1.344-.297 2.84.72 3.906.214.227.39.492.618.782-.057.032-.108.057-.152.101-1.161 1.155-2.316 2.316-3.483 3.471-.089.088-.101.164-.07.278.612 2.221.43 4.38-.618 6.43-1.123 2.202-2.897 3.666-5.27 4.354-2.233.65-4.423.467-6.505-.58-2.114-1.06-3.528-2.745-4.298-4.98a8.171 8.171 0 01-.423-2.17c0-.032-.018-.063-.025-.095a63.688 63.688 0 01-.006-1.098zm9.933-3.988c-.05.013-.076.02-.101.025-1.338.354-2.676.726-4.014 1.06-.315.076-.442.215-.517.524-.335 1.344-.7 2.682-1.06 4.02-.02.082-.007.133.05.19 1.06 1.06 2.12 2.12 3.187 3.173.038.038.12.064.17.045.694-.177 1.388-.366 2.083-.55.738-.195 1.47-.39 2.208-.58.095-.025.152-.07.177-.177l1.136-4.31c.012-.05-.007-.126-.038-.157-1.06-1.067-2.127-2.127-3.187-3.193-.038-.032-.076-.05-.094-.07zm20.824-11.195c-.278-.277-.537-.542-.802-.801a3.483 3.483 0 00-2.1-.972c-1.067-.12-2.008.196-2.84.89-.871-.978-1.742-1.956-2.613-2.94l3.704-3.705c-.227-.41-.448-.795-.656-1.186-.511-.997-.884-2.045-1.01-3.162-.202-1.754.253-3.313 1.414-4.663.542-.631 1.199-1.117 1.88-1.578A18.019 18.019 0 0132.865.48C33.9.183 34.96 0 36.045.038c.555.019 1.2.095 1.71.296-.044.045-.082.082-.12.127L32.72 5.376c-.744.745-.75 1.786-.006 2.525 1.666 1.672 3.338 3.338 5.004 5.004.631.63 1.446.738 2.178.296.113-.069.22-.157.315-.252l2.366-2.442c.537-.555 1.08-1.11 1.616-1.666.31-.316.612-.637.946-.978.057.195.114.36.158.536.19.82.19 1.647.07 2.474-.284 2.032-1.054 3.887-2.108 5.635a12.24 12.24 0 01-1.887 2.448c-.675.676-1.432 1.231-2.335 1.572a5.91 5.91 0 01-2.644.34c-1.426-.12-2.726-.637-3.956-1.344-.108-.063-.17-.05-.253.032-.46.48-.927.947-1.407 1.432z" fill="#F6F4F8"/></svg>