<svg width="113" height="78" fill="none" xmlns="http://www.w3.org/2000/svg"><path d="M111.032 57.924c0 5.481-5.488 9.966-12.196 9.966h-84.64C7.488 67.89 2 63.405 2 57.924V11.966C2 6.485 7.488 2 14.196 2h84.64c6.708 0 12.196 4.485 12.196 9.966v45.958z" fill="#fff"/><path d="M111.032 57.924c0 5.481-5.488 9.966-12.196 9.966h-84.64C7.488 67.89 2 63.405 2 57.924V11.966C2 6.485 7.488 2 14.196 2h84.64c6.708 0 12.196 4.485 12.196 9.966v45.958zM3 58h108" stroke="#515151" stroke-width="3" stroke-miterlimit="10"/><path d="M46 76.46h21.98" stroke="#515151" stroke-width="3" stroke-miterlimit="10" stroke-linecap="round"/><path d="M56.74 63.42a.74.74 0 100-1.48.74.74 0 000 1.48z" stroke="#515151" stroke-width="3" stroke-miterlimit="10"/><path d="M63.04 67.89H50v8.57h13.04v-8.57z" fill="#fff" stroke="#515151" stroke-width="3" stroke-miterlimit="10"/></svg>