<svg width="72" height="60" fill="none" xmlns="http://www.w3.org/2000/svg"><path d="M16.21 18.8h-4.52C6.36 18.8 2 23.45 2 29.14v2.58c0 5.69 4.36 10.34 9.69 10.34h4.52L31.72 52.4V8.46L16.21 18.8z" fill="#fff" stroke="#515151" stroke-width="3" stroke-miterlimit="10"/><path d="M40.23 19.13c5.3 1.08 9.29 5.77 9.29 11.4 0 5.46-3.77 10.05-8.84 11.3" stroke="#515151" stroke-width="3" stroke-miterlimit="10" stroke-linecap="round"/><path d="M46.31 10.58c7.77 3.29 13.22 10.98 13.22 19.95 0 8.82-5.27 16.4-12.83 19.78" stroke="#515151" stroke-width="3" stroke-miterlimit="10" stroke-linecap="round"/><path d="M51.84 2.82c10.12 5.11 17.07 15.6 17.07 27.71 0 11.97-6.78 22.35-16.7 27.52M14.91 2l55.58 55.58" stroke="#515151" stroke-width="3" stroke-miterlimit="10" stroke-linecap="round"/></svg>